<svg id="Capa_1" enable-background="new 0 0 497 497" height="512" viewBox="0 0 497 497" width="512" xmlns="http://www.w3.org/2000/svg"><g><g><path d="m448.5 341.75h-27.5c-4.142 0-7.5-3.357-7.5-7.5v-47c0-4.143 3.358-7.5 7.5-7.5h27.5c17.093 0 31 13.906 31 31s-13.907 31-31 31zm-20-15h20c8.822 0 16-7.178 16-16s-7.178-16-16-16h-20z" fill="#f21756"/></g><g><path d="m375.08 124.25h-333.16c-9.35 0-16.92 7.57-16.92 16.92v211.16c0 9.35 7.57 16.92 16.92 16.92h350.08v-228.08c0-9.35-7.57-16.92-16.92-16.92z" fill="#b0d4df"/></g><path d="m212.095 340.25c-73.867 0-133.749-59.881-133.749-133.749v-82.251h-36.426c-9.345 0-16.92 7.575-16.92 16.92v211.16c0 9.345 7.575 16.92 16.92 16.92h350.08v-29z" fill="#a3c6ce"/><g><g id="XMLID_104_"><g fill="#87b4be"><path d="m226 174.913v13.298c0 9.411-7.629 17.04-17.04 17.04h-13.298c-.918 0-1.663-.744-1.663-1.663v-13.298c0-9.411 7.629-17.04 17.04-17.04h13.298c.919 0 1.663.744 1.663 1.663z"/><path d="m245.5 264.75c.279 23.315-19.143 42.161-42.652 40.944-21.736-1.125-38.843-19.67-38.336-41.43.509-21.858 17.918-39.199 39.909-39.515 8.384-.118 16.193 2.319 22.697 6.574 1.13.739 1.561 2.166 1.09 3.431-4.548 12.207 2.333 25.98 15.233 29.435l2.05.55c-.001.001-.001.011.009.011z"/></g></g></g><g id="XMLID_101_"><g><g id="XMLID_102_"><path d="m433 279.06v57.28c0 18.17-14.74 32.91-32.91 32.91h-35.18-19c-18.17 0-32.91-14.74-32.91-32.91v-57.28c0-7.63 6.18-13.81 13.81-13.81h65.19 27.19c7.63 0 13.81 6.18 13.81 13.81z" fill="#f21756"/></g></g></g><path d="m401.41 342.25c-28.669 0-51.91-23.241-51.91-51.91v-25.09h-22.69c-7.627 0-13.81 6.183-13.81 13.81v57.28c0 18.176 14.734 32.91 32.91 32.91h19 35.18c16.151 0 29.583-11.65 32.37-27z" fill="#e01458"/><g><path d="m358 312.75c-4.142 0-7.5-3.357-7.5-7.5v-40c0-4.143 3.358-7.5 7.5-7.5s7.5 3.357 7.5 7.5v40c0 4.143-3.358 7.5-7.5 7.5z" fill="#89bfcc"/></g><g id="XMLID_105_"><g><path d="m497 378.8v10.9c0 5.28-4.27 9.55-9.55 9.55h-477.9c-5.28 0-9.55-4.27-9.55-9.55v-10.9c0-5.28 4.27-9.55 9.55-9.55h477.9c5.28 0 9.55 4.27 9.55 9.55z" fill="#f5ab71"/></g></g><path d="m487.45 384.652h-477.9c-4.647 0-8.508-3.309-9.368-7.701-.117.599-.182 1.216-.182 1.849v10.9c0 5.28 4.27 9.55 9.55 9.55h477.9c5.28 0 9.55-4.27 9.55-9.55v-10.9c0-.633-.065-1.25-.182-1.849-.86 4.393-4.721 7.701-9.368 7.701z" fill="#ea9963"/><g><path d="m360 248.75c-4.142 0-7.5-3.357-7.5-7.5v-42c0-7.995-6.505-14.5-14.5-14.5s-14.5 6.505-14.5 14.5 6.505 14.5 14.5 14.5c4.142 0 7.5 3.357 7.5 7.5s-3.358 7.5-7.5 7.5c-16.266 0-29.5-13.233-29.5-29.5s13.234-29.5 29.5-29.5 29.5 13.233 29.5 29.5v42c0 4.143-3.358 7.5-7.5 7.5z" fill="#fee2bc"/></g><g><path d="m417 160.75c-4.142 0-7.5-3.357-7.5-7.5v-32c0-12.958 10.542-23.5 23.5-23.5s23.5 10.542 23.5 23.5c0 6.786-2.933 13.239-8.047 17.705-3.12 2.724-7.858 2.405-10.583-.717-2.725-3.119-2.404-7.857.716-10.582 1.852-1.617 2.914-3.952 2.914-6.406 0-4.687-3.813-8.5-8.5-8.5s-8.5 3.813-8.5 8.5v32c0 4.143-3.358 7.5-7.5 7.5z" fill="#fee2bc"/></g><g><path d="m417 192.75c-4.142 0-7.5-3.357-7.5-7.5v-13c0-4.143 3.358-7.5 7.5-7.5s7.5 3.357 7.5 7.5v13c0 4.143-3.358 7.5-7.5 7.5z" fill="#fee2bc"/></g><g id="XMLID_103_"><g><path d="m374 311.9v19.56c0 3.75-3.04 6.79-6.79 6.79h-18.42c-3.75 0-6.79-3.04-6.79-6.79v-19.56c0-2.24 1.26-4.28 3.27-5.28l12.73-6.37 12.73 6.37c2.01 1 3.27 3.04 3.27 5.28z" fill="#fee2bc"/></g></g></g></svg>